<svg width="35" height="35" viewBox="0 0 35 35" fill="none" xmlns="http://www.w3.org/2000/svg">
<path d="M30.2023 0H4.79738C2.77244 0 1.13086 1.64151 1.13086 3.66652V10.8027C1.13086 12.8276 2.77237 14.4692 4.79738 14.4692H30.2024C32.2274 14.4692 33.8689 12.8277 33.8689 10.8027V3.66652C33.8689 1.64151 32.2273 0 30.2023 0Z" fill="white"/>
<path d="M4.79734 12.7416C3.7282 12.7416 2.8584 11.8718 2.8584 10.8027V3.66648C2.8584 2.59734 3.7282 1.72754 4.79734 1.72754H30.2023C31.2714 1.72754 32.1412 2.59734 32.1412 3.66648V10.8027C32.1412 11.8718 31.2714 12.7416 30.2023 12.7416H4.79734Z" fill="#F3BB1C"/>
<path d="M10.6638 20.9623C11.6489 20.4157 12.8903 20.7711 13.4363 21.7564C14.1174 22.9838 14.201 23.5919 14.201 23.5919V14.0094C14.201 13.5166 14.4007 13.07 14.7243 12.7465C15.0478 12.423 15.4943 12.2231 15.9871 12.2231C16.9731 12.2231 17.7726 13.0223 17.7733 14.0081V20.3325C17.7733 19.3459 18.573 18.5462 19.5596 18.5462C20.5462 18.5462 21.3459 19.3459 21.3459 20.3325V20.788C21.3459 19.8014 22.1456 19.0017 23.1322 19.0017C24.1188 19.0017 24.9185 19.8014 24.9185 20.788V22.5743C24.9185 21.5877 25.7182 20.788 26.7048 20.788C27.6914 20.788 28.4911 21.5877 28.4911 22.5743V26.6941C28.4911 30.5355 26.0271 35.0001 21.6649 35.0001C21.6649 35.0001 18.5538 35.0001 16.3444 35.0001C10.434 35.0001 10.3949 26.8162 10.3949 26.8162C10.3949 26.8162 10.3962 24.6842 9.86981 23.7349C9.32327 22.7503 9.67867 21.5089 10.6638 20.9623Z" fill="#FFE2C5"/>
<path d="M15.0576 26.8809C14.5908 26.9024 14.2017 26.5269 14.2017 26.0596V14.0091C14.2017 13.516 14.4017 13.0697 14.725 12.7465C15.049 12.4225 15.4952 12.2231 15.9884 12.2231C16.2871 12.2231 16.5693 12.2966 16.8162 12.4269C16.6549 12.5104 16.5081 12.6191 16.3807 12.7464C16.0575 13.0696 15.8573 13.516 15.8573 14.009V26.0591C15.8573 26.4958 15.5161 26.8585 15.0799 26.8799C15.0726 26.8802 15.065 26.8806 15.0576 26.8809Z" fill="#E5C4A5"/>
<path d="M18.6299 23.9325C18.1631 23.954 17.7739 23.5785 17.7739 23.1112V20.3323C17.7739 19.8393 17.974 19.3929 18.2973 19.0697C18.6212 18.7458 19.0675 18.5464 19.5606 18.5464C19.8594 18.5464 20.1416 18.6198 20.3885 18.7501C20.2272 18.8336 20.0804 18.9423 19.9529 19.0697C19.6297 19.3929 19.4296 19.8392 19.4296 20.3323V23.1107C19.4296 23.5473 19.0884 23.91 18.6522 23.9314C18.6448 23.9317 18.6373 23.9321 18.6299 23.9325Z" fill="#E5C4A5"/>
<path d="M22.2021 23.3078C21.7354 23.3293 21.3462 22.9538 21.3462 22.4866V20.7874C21.3462 20.2943 21.5463 19.848 21.8696 19.5248C22.1935 19.2009 22.6398 19.0015 23.1329 19.0015C23.4316 19.0015 23.7138 19.0749 23.9607 19.2052C23.7995 19.2887 23.6526 19.3974 23.5252 19.5248C23.202 19.848 23.0019 20.2943 23.0019 20.7874V22.4859C23.0019 22.9225 22.6607 23.2852 22.2245 23.3066C22.2171 23.3072 22.2096 23.3074 22.2021 23.3078Z" fill="#E5C4A5"/>
<path d="M25.7749 24.0146C25.3081 24.036 24.9189 23.6605 24.9189 23.1933V22.574C24.9189 22.081 25.119 21.6346 25.4423 21.3114C25.7663 20.9875 26.2125 20.7881 26.7057 20.7881C27.0044 20.7881 27.2866 20.8615 27.5335 20.9918C27.3722 21.0753 27.2254 21.184 27.098 21.3114C26.7748 21.6346 26.5746 22.0809 26.5746 22.574V23.1927C26.5746 23.6293 26.2334 23.992 25.7972 24.0134C25.7898 24.0139 25.7824 24.0142 25.7749 24.0146Z" fill="#E5C4A5"/>
<path d="M18.0008 34.9998H16.3452C10.4345 34.9998 10.3956 26.8158 10.3956 26.8158C10.3956 26.8043 10.3949 24.6807 9.87016 23.7342C9.32377 22.7501 9.67937 21.5084 10.6642 20.9621C11.2458 20.6395 11.9174 20.6309 12.4818 20.8815C12.4271 20.9059 12.3731 20.9326 12.3198 20.9621C11.335 21.5085 10.9794 22.7501 11.5258 23.7342C12.0506 24.6807 12.0513 26.8043 12.0513 26.8158C12.0513 26.8158 12.0902 34.9998 18.0008 34.9998Z" fill="#E5C4A5"/>
<path d="M10.192 7.62993H7.81947V10.6563C7.81947 10.941 7.47152 11.0886 7.1341 11.0886C6.78615 11.0886 6.44873 10.941 6.44873 10.6563V3.80215C6.44873 3.50684 6.78622 3.38037 7.1341 3.38037C7.47159 3.38037 7.81947 3.5069 7.81947 3.80215V6.5543H10.192V3.80215C10.192 3.50684 10.5295 3.38037 10.8774 3.38037C11.2149 3.38037 11.5628 3.5069 11.5628 3.80215V10.6562C11.5628 10.9409 11.2148 11.0886 10.8774 11.0886C10.5294 11.0886 10.192 10.9409 10.192 10.6562V7.62993Z" fill="white"/>
<path d="M14.1994 6.69143H15.8022C16.0764 6.69143 16.2346 6.95502 16.2346 7.23974C16.2346 7.48228 16.0976 7.76692 15.8022 7.76692H14.1994V9.88641H17.1836C17.4578 9.88641 17.616 10.1711 17.616 10.498C17.616 10.7827 17.4789 11.0885 17.1836 11.0885H13.4297C13.1239 11.0885 12.8286 10.9408 12.8286 10.6561V3.81274C12.8286 3.52803 13.1239 3.38037 13.4297 3.38037H17.1836C17.4789 3.38037 17.616 3.68614 17.616 3.97086C17.616 4.29775 17.4578 4.58247 17.1836 4.58247H14.1994V6.69143Z" fill="white"/>
<path d="M19.0181 11.0886C18.7123 11.0886 18.417 10.9409 18.417 10.6562V3.80215C18.417 3.50684 18.7544 3.38037 19.1024 3.38037C19.4399 3.38037 19.7877 3.5069 19.7877 3.80215V9.88641H22.3606C22.6348 9.88641 22.7719 10.1817 22.7719 10.4875C22.7719 10.7828 22.6348 11.0886 22.3606 11.0886H19.0181Z" fill="white"/>
<path d="M23.521 3.80215C23.521 3.58073 23.7214 3.38037 24.0377 3.38037H26.1572C27.4964 3.38037 28.5509 4.02363 28.5509 5.75292V5.81622C28.5509 7.54551 27.4648 8.20989 26.0729 8.20989H24.8919V10.6562C24.8919 10.9409 24.5439 11.0886 24.2065 11.0886C23.8586 11.0886 23.5211 10.9409 23.5211 10.6562V3.80215H23.521ZM24.8918 4.58247V7.13426H26.0728C26.7582 7.13426 27.18 6.74413 27.18 5.92163V5.7951C27.18 4.9726 26.7582 4.58247 26.0728 4.58247H24.8918Z" fill="white"/>
</svg>
